/* XPM */
static const char *brush_players_7[] = {
/* columns rows colors chars-per-pixel */
"16 16 4 1",
"  c #000000",
". c #808080",
"X c #C0C0C0",
"o c None",
/* pixels */
"oo............oo",
"oo.XXXXXXXXXX.oo",
"oo.XX      XX.oo",
"oo.XX      XX.oo",
"oo.XXXXXX  XX.oo",
"oo.XXXXXX  XX.oo",
"oo.XXXXX   XX.oo",
"oo.XXXX   XXX.oo",
"oo.XXXX  XXXX.oo",
"oo.XXXX  XXXX.oo",
"oo.XXXX  XXXX.oo",
"oo.XXXX  XXXX.oo",
"ooo.XXXXXXXX.ooo",
"ooo.XXXXXXXX.ooo",
"oooo..XXXX..oooo",
"oooooo....oooooo"
};
