/* XPM */
static const char *brush_players_5[] = {
/* columns rows colors chars-per-pixel */
"16 16 4 1",
"  c #000000",
". c #808080",
"X c #C0C0C0",
"o c None",
/* pixels */
"oo............oo",
"oo.XXXXXXXXXX.oo",
"oo.XX      XX.oo",
"oo.XX      XX.oo",
"oo.XX  XXXXXX.oo",
"oo.XX  XXXXXX.oo",
"oo.XX     XXX.oo",
"oo.XXX     XX.oo",
"oo.XXXXXX  XX.oo",
"oo.XXXXXX  XX.oo",
"oo.XX      XX.oo",
"oo.XXX    XXX.oo",
"ooo.XXXXXXXX.ooo",
"ooo.XXXXXXXX.ooo",
"oooo..XXXX..oooo",
"oooooo....oooooo"
};
